<svg width="43" height="43" viewBox="0 0 43 43" fill="none" xmlns="http://www.w3.org/2000/svg">
<path d="M18.9375 37.7084C23.9158 37.7084 28.6903 35.7308 32.2105 32.2106C35.7307 28.6904 37.7083 23.9159 37.7083 18.9376C37.7083 13.9592 35.7307 9.18481 32.2105 5.6646C28.6903 2.14438 23.9158 0.166748 18.9375 0.166748C13.9592 0.166748 9.18474 2.14438 5.66452 5.6646C2.14431 9.18481 0.166672 13.9592 0.166672 18.9376C0.166672 23.9159 2.14431 28.6904 5.66452 32.2106C9.18474 35.7308 13.9592 37.7084 18.9375 37.7084ZM41.8125 35.4792C41.125 34.2084 39.6667 33.5001 37.7083 33.5001C36.2292 33.5001 34.9583 34.1042 34.2083 35.1459C33.4583 36.1876 33.2917 37.5834 33.75 38.9792C34.6458 41.6876 36.2083 42.2917 37.0625 42.3959C37.1875 42.4167 37.3125 42.4167 37.4583 42.4167C38.375 42.4167 39.7917 42.0209 41.1667 39.9584C42.2708 38.3542 42.4792 36.7501 41.8125 35.4792Z" fill="#545454"/>
</svg>
