<svg width="42" height="42" viewBox="0 0 42 42" fill="none" xmlns="http://www.w3.org/2000/svg">
<path d="M31.4167 0.166748H10.5834C4.83342 0.166748 0.166748 4.81258 0.166748 10.5417V25.0834C0.166748 30.8126 4.83342 35.4584 10.5834 35.4584H13.7084C14.2709 35.4584 15.0209 35.8334 15.3751 36.2917L18.5001 40.4376C19.8751 42.2709 22.1251 42.2709 23.5001 40.4376L26.6251 36.2917C27.0209 35.7709 27.6459 35.4584 28.2917 35.4584H31.4167C37.1668 35.4584 41.8334 30.8126 41.8334 25.0834V10.5417C41.8334 4.81258 37.1668 0.166748 31.4167 0.166748ZM12.6667 21.0001C11.5001 21.0001 10.5834 20.0626 10.5834 18.9167C10.5834 17.7709 11.5209 16.8334 12.6667 16.8334C13.8126 16.8334 14.7501 17.7709 14.7501 18.9167C14.7501 20.0626 13.8334 21.0001 12.6667 21.0001ZM21.0001 21.0001C19.8334 21.0001 18.9167 20.0626 18.9167 18.9167C18.9167 17.7709 19.8542 16.8334 21.0001 16.8334C22.1459 16.8334 23.0834 17.7709 23.0834 18.9167C23.0834 20.0626 22.1667 21.0001 21.0001 21.0001ZM29.3334 21.0001C28.1667 21.0001 27.2501 20.0626 27.2501 18.9167C27.2501 17.7709 28.1876 16.8334 29.3334 16.8334C30.4792 16.8334 31.4167 17.7709 31.4167 18.9167C31.4167 20.0626 30.5001 21.0001 29.3334 21.0001Z" fill="#545454"/>
</svg>
