<svg width="38" height="42" viewBox="0 0 38 42" fill="none" xmlns="http://www.w3.org/2000/svg">
<path d="M31.5 0.166748H6.5C3.04167 0.166748 0.25 2.93758 0.25 6.35425V29.0834C0.25 32.5001 3.04167 35.2709 6.5 35.2709H8.08333C9.75 35.2709 11.3333 35.9167 12.5 37.0834L16.0625 40.6043C17.6875 42.2084 20.3333 42.2084 21.9583 40.6043L25.5208 37.0834C26.6875 35.9167 28.2917 35.2709 29.9375 35.2709H31.5C34.9583 35.2709 37.75 32.5001 37.75 29.0834V6.35425C37.75 2.93758 34.9583 0.166748 31.5 0.166748ZM15.625 23.1042C16.4792 23.1042 17.1875 23.8126 17.1875 24.6667C17.1875 25.5209 16.4792 26.2292 15.625 26.2292H10.0417C9.125 26.2292 8.27083 25.7917 7.72917 25.0417C7.20833 24.3334 7.08333 23.4584 7.33333 22.6251C8.0625 20.3959 9.85417 19.1876 11.4375 18.1042C13.1042 16.9792 14.0417 16.2709 14.0417 15.0626C14.0417 13.9792 13.1667 13.1042 12.0833 13.1042C11 13.1042 10.1458 14.0001 10.1458 15.0834C10.1458 15.9376 9.4375 16.6459 8.58333 16.6459C7.72917 16.6459 7.02083 15.9376 7.02083 15.0834C7.02083 12.2917 9.29167 10.0001 12.1042 10.0001C14.9167 10.0001 17.1875 12.2709 17.1875 15.0834C17.1875 18.0209 14.9792 19.5209 13.2083 20.7292C12.1042 21.4792 11.0625 22.1876 10.5417 23.1251H15.625V23.1042ZM29.4167 23.2501H28.9792V24.6876C28.9792 25.5418 28.2708 26.2501 27.4167 26.2501C26.5625 26.2501 25.8542 25.5418 25.8542 24.6876V23.2501H21.75C20.7292 23.2501 19.7917 22.7084 19.2708 21.8334C18.75 20.9376 18.75 19.8334 19.2708 18.9584C20.6875 16.5209 22.3333 13.7501 23.8333 11.3334C24.5 10.2709 25.7708 9.79175 26.9583 10.1251C28.1458 10.4792 28.9792 11.5626 28.9583 12.8126V20.1459H29.4167C30.2708 20.1459 30.9792 20.8542 30.9792 21.7084C30.9792 22.5626 30.2708 23.2501 29.4167 23.2501Z" fill="#545454"/>
</svg>
