<svg width="34" height="34" viewBox="0 0 34 34" fill="none" xmlns="http://www.w3.org/2000/svg">
<path d="M17.0283 4.12256C12.3392 4.12256 8.52834 7.93339 8.52834 12.6226V16.7167C8.52834 17.5809 8.16 18.8984 7.72084 19.6351L6.09167 22.3409C5.08584 24.0126 5.78 25.8684 7.62167 26.4917C13.7275 28.5317 20.315 28.5317 26.4208 26.4917C28.135 25.9251 28.8858 23.8992 27.9508 22.3409L26.3217 19.6351C25.8967 18.8984 25.5283 17.5809 25.5283 16.7167V12.6226C25.5283 7.94756 21.7033 4.12256 17.0283 4.12256Z" stroke="white" stroke-width="1.5" stroke-miterlimit="10" stroke-linecap="round"/>
<path d="M19.6492 4.53329C17.936 4.04538 16.1207 4.04538 14.4075 4.53329C14.8183 3.48496 15.8383 2.74829 17.0283 2.74829C18.2183 2.74829 19.2383 3.48496 19.6492 4.53329V4.53329Z" stroke="white" stroke-width="1.5" stroke-miterlimit="10" stroke-linecap="round" stroke-linejoin="round"/>
<path d="M21.2783 27.0017C21.2783 29.3392 19.3658 31.2517 17.0283 31.2517C15.8667 31.2517 14.79 30.77 14.025 30.005C13.2291 29.2079 12.7809 28.1282 12.7783 27.0017" stroke="white" stroke-width="1.5" stroke-miterlimit="10"/>
<circle cx="25" cy="7" r="5" fill="#FF0000"/>
</svg>
