<svg width="22" height="23" viewBox="0 0 22 23" fill="none" xmlns="http://www.w3.org/2000/svg">
<path d="M15.41 3.50023C17.35 3.50023 18.91 5.07023 18.91 7.00023C18.91 8.89023 17.41 10.4302 15.54 10.5002C15.4536 10.4902 15.3664 10.4902 15.28 10.5002M17.34 19.5002C18.06 19.3502 18.74 19.0602 19.3 18.6302C20.86 17.4602 20.86 15.5302 19.3 14.3602C18.75 13.9402 18.08 13.6602 17.37 13.5002M8.15997 10.3702C8.05997 10.3602 7.93997 10.3602 7.82997 10.3702C6.68217 10.3313 5.59461 9.84707 4.7976 9.02019C4.00059 8.19332 3.55671 7.08869 3.55997 5.94023C3.55997 3.49023 5.53997 1.50023 7.99997 1.50023C9.17621 1.47902 10.3127 1.92593 11.1594 2.74265C12.0061 3.55937 12.4938 4.679 12.515 5.85523C12.5362 7.03147 12.0893 8.16796 11.2726 9.01468C10.4558 9.86141 9.33621 10.349 8.15997 10.3702ZM3.15997 14.0602C0.739971 15.6802 0.739971 18.3202 3.15997 19.9302C5.90997 21.7702 10.42 21.7702 13.17 19.9302C15.59 18.3102 15.59 15.6702 13.17 14.0602C10.43 12.2302 5.91997 12.2302 3.15997 14.0602Z" stroke="black" stroke-width="1.5" stroke-linecap="round" stroke-linejoin="round"/>
</svg>
