<svg width="16" height="18" viewBox="0 0 16 18" fill="none" xmlns="http://www.w3.org/2000/svg">
<path d="M14.8972 6.30684C14.0492 2.57578 10.7947 0.895996 7.9358 0.895996H7.92772C5.07694 0.895996 1.81428 2.5677 0.966314 6.29876C0.0214362 10.4659 2.57341 13.9951 4.88312 16.2159C5.70179 17.0083 6.79645 17.4514 7.9358 17.4516C9.03412 17.4516 10.1324 17.0397 10.9804 16.2159C13.2901 13.9951 15.8421 10.474 14.8972 6.30684ZM7.9358 10.3529C7.60173 10.3529 7.27093 10.2871 6.96229 10.1592C6.65365 10.0314 6.37321 9.84398 6.13699 9.60776C5.90077 9.37154 5.71338 9.0911 5.58554 8.78246C5.4577 8.47382 5.3919 8.14302 5.3919 7.80895C5.3919 7.47488 5.4577 7.14408 5.58554 6.83544C5.71338 6.5268 5.90077 6.24636 6.13699 6.01014C6.37321 5.77392 6.65365 5.58653 6.96229 5.45869C7.27093 5.33085 7.60173 5.26505 7.9358 5.26505C8.61048 5.26505 9.25754 5.53307 9.73461 6.01014C10.2117 6.48721 10.4797 7.13427 10.4797 7.80895C10.4797 8.48363 10.2117 9.13069 9.73461 9.60776C9.25754 10.0848 8.61048 10.3529 7.9358 10.3529V10.3529Z" fill="black" fill-opacity="0.8"/>
</svg>
