<svg width="17" height="20" viewBox="0 0 17 20" fill="none" xmlns="http://www.w3.org/2000/svg">
<path d="M16.1856 18.7453C16.1856 15.3316 12.7896 12.5707 8.60852 12.5707C4.42748 12.5707 1.03149 15.3316 1.03149 18.7453M8.60852 9.92452C9.77823 9.92452 10.9 9.45986 11.7271 8.63275C12.5542 7.80565 13.0189 6.68385 13.0189 5.51414C13.0189 4.34444 12.5542 3.22264 11.7271 2.39554C10.9 1.56843 9.77823 1.10377 8.60852 1.10377C7.43882 1.10377 6.31702 1.56843 5.48991 2.39554C4.66281 3.22264 4.19814 4.34444 4.19814 5.51414C4.19814 6.68385 4.66281 7.80565 5.48991 8.63275C6.31702 9.45986 7.43882 9.92452 8.60852 9.92452V9.92452Z" stroke="white" stroke-opacity="0.5" stroke-width="1.32311" stroke-linecap="round" stroke-linejoin="round"/>
</svg>
