<svg width="20" height="20" viewBox="0 0 20 20" fill="none" xmlns="http://www.w3.org/2000/svg">
<path d="M18.4029 15.3194C18.4029 15.6369 18.3323 15.9633 18.1824 16.2809C18.0324 16.5984 17.8384 16.8983 17.5826 17.1806C17.1503 17.6569 16.674 18.0009 16.136 18.2214C15.6067 18.4419 15.0334 18.5566 14.4159 18.5566C13.5162 18.5566 12.5547 18.3449 11.5403 17.9127C10.526 17.4805 9.51157 16.8983 8.506 16.1662C7.48113 15.4165 6.514 14.5909 5.61279 13.6964C4.72081 12.7984 3.89813 11.8342 3.1518 10.812C2.4285 9.80642 1.84633 8.80086 1.42294 7.80411C0.99954 6.79854 0.787842 5.83708 0.787842 4.91972C0.787842 4.31991 0.893691 3.74656 1.10539 3.21732C1.31709 2.67925 1.65228 2.18529 2.11978 1.74425C2.6843 1.18854 3.30176 0.9151 3.95449 0.9151C4.20147 0.9151 4.44846 0.968025 4.66897 1.07387C4.89831 1.17972 5.10119 1.3385 5.25996 1.56784L7.30638 4.45222C7.46515 4.67274 7.57982 4.87562 7.65921 5.06968C7.7386 5.25491 7.7827 5.44015 7.7827 5.60774C7.7827 5.81944 7.72096 6.03114 7.59746 6.23402C7.48279 6.43689 7.3152 6.64859 7.1035 6.86029L6.43312 7.55713C6.3361 7.65416 6.29199 7.76883 6.29199 7.90996C6.29199 7.98053 6.30081 8.04227 6.31846 8.11284C6.34492 8.1834 6.37138 8.23633 6.38902 8.28925C6.5478 8.58034 6.82124 8.95963 7.20935 9.41831C7.60629 9.87699 8.02968 10.3445 8.48836 10.812C8.96468 11.2795 9.42336 11.7117 9.89086 12.1086C10.3495 12.4968 10.7288 12.7614 11.0287 12.9201C11.0728 12.9378 11.1258 12.9643 11.1875 12.9907C11.2581 13.0172 11.3286 13.026 11.408 13.026C11.558 13.026 11.6727 12.9731 11.7697 12.876L12.4401 12.2145C12.6606 11.994 12.8723 11.8264 13.0752 11.7205C13.278 11.597 13.4809 11.5353 13.7014 11.5353C13.869 11.5353 14.0454 11.5706 14.2395 11.65C14.4335 11.7293 14.6364 11.844 14.8569 11.994L17.7766 14.0668C18.006 14.2256 18.1647 14.4109 18.2618 14.6314C18.35 14.8519 18.4029 15.0724 18.4029 15.3194V15.3194Z" stroke="white" stroke-opacity="0.5" stroke-width="1.32311" stroke-miterlimit="10"/>
</svg>
