<svg width="18" height="18" viewBox="0 0 18 18" fill="none" xmlns="http://www.w3.org/2000/svg">
<path d="M15.07 5.50916L6.51002 1.22916C0.76002 -1.65084 -1.59998 0.709157 1.28002 6.45916L2.15002 8.19916C2.40002 8.70916 2.40002 9.29916 2.15002 9.80916L1.28002 11.5392C-1.59998 17.2892 0.75002 19.6492 6.51002 16.7692L15.07 12.4892C18.91 10.5692 18.91 7.42916 15.07 5.50916ZM11.84 9.74916H6.44002C6.03002 9.74916 5.69002 9.40916 5.69002 8.99916C5.69002 8.58916 6.03002 8.24916 6.44002 8.24916H11.84C12.25 8.24916 12.59 8.58916 12.59 8.99916C12.59 9.40916 12.25 9.74916 11.84 9.74916Z" fill="#FF0000"/>
</svg>
