<svg width="33" height="33" viewBox="0 0 33 33" fill="none" xmlns="http://www.w3.org/2000/svg">
<path d="M31.125 32.7501H1.875C1.20875 32.7501 0.65625 32.1976 0.65625 31.5314C0.65625 30.8651 1.20875 30.3126 1.875 30.3126H31.125C31.7912 30.3126 32.3438 30.8651 32.3438 31.5314C32.3438 32.1976 31.7912 32.7501 31.125 32.7501ZM27.9075 2.65837C24.755 -0.494132 21.6675 -0.575382 18.4337 2.65837L16.4675 4.62462C16.305 4.78712 16.24 5.04712 16.305 5.27462C16.9265 7.40724 18.0757 9.34869 19.6465 10.9194C21.2172 12.4901 23.1586 13.6394 25.2912 14.2609C25.4064 14.2986 25.5298 14.3033 25.6475 14.2746C25.7653 14.2459 25.8726 14.1849 25.9575 14.0984L27.9075 12.1321C29.5163 10.5396 30.2962 8.99587 30.2962 7.43587C30.3125 5.82712 29.5325 4.26712 27.9075 2.65837ZM22.3662 15.7364C21.895 15.5089 21.44 15.2814 21.0013 15.0214C20.6448 14.8091 20.2979 14.5813 19.9613 14.3389C19.685 14.1601 19.36 13.9001 19.0512 13.6401C18.9518 13.5676 18.8593 13.486 18.775 13.3964C18.2387 12.9414 17.6375 12.3564 17.1012 11.7064C17.0525 11.6739 16.9713 11.5601 16.8575 11.4139C16.695 11.2189 16.4188 10.8939 16.175 10.5201C15.9434 10.2145 15.7317 9.89424 15.5412 9.56137C15.2812 9.12262 15.0538 8.68387 14.8263 8.22887C14.7924 8.1561 14.7594 8.08297 14.7271 8.00949C14.4866 7.46837 13.7798 7.31074 13.3621 7.72837L4.0525 17.038C3.84125 17.2492 3.64625 17.6555 3.5975 17.9317L2.72 24.1555C2.5575 25.2605 2.86625 26.3005 3.54875 26.9992C4.13375 27.568 4.94625 27.8767 5.82375 27.8767C6.01875 27.8767 6.21375 27.8605 6.40875 27.828L12.6488 26.9505C12.9413 26.9017 13.3475 26.7067 13.5425 26.4955L22.8408 17.1989C23.2633 16.7764 23.1024 16.0532 22.5547 15.8176C22.4919 15.7907 22.429 15.7636 22.3662 15.7364Z" fill="white"/>
</svg>
