<svg width="31" height="31" viewBox="0 0 31 31" fill="none" xmlns="http://www.w3.org/2000/svg">
<path d="M29.6139 29.3473L26.7944 26.5278M14.8118 27.9376C16.5705 27.9376 18.312 27.5912 19.9368 26.9181C21.5617 26.2451 23.038 25.2586 24.2816 24.015C25.5252 22.7714 26.5117 21.2951 27.1847 19.6702C27.8578 18.0454 28.2042 16.3039 28.2042 14.5452C28.2042 12.7865 27.8578 11.045 27.1847 9.42016C26.5117 7.79532 25.5252 6.31896 24.2816 5.07536C23.038 3.83177 21.5617 2.84529 19.9368 2.17226C18.312 1.49924 16.5705 1.15283 14.8118 1.15283C11.2599 1.15283 7.85352 2.56381 5.34196 5.07536C2.83041 7.58692 1.41943 10.9933 1.41943 14.5452C1.41943 18.0971 2.83041 21.5035 5.34196 24.015C7.85352 26.5266 11.2599 27.9376 14.8118 27.9376Z" stroke="#1E1E1E" stroke-width="1.45" stroke-linecap="round" stroke-linejoin="round"/>
</svg>
